<?xml version="1.0" encoding="UTF-8" standalone="no"?><svg xmlns="http://www.w3.org/2000/svg" xmlns:xlink="http://www.w3.org/1999/xlink" clip-rule="evenodd" stroke-miterlimit="4.00" viewBox="0 0 1024 768"><desc>SVG generated by Keynote</desc><defs></defs><g transform="matrix(1.00, 0.00, -0.00, -1.00, 0.0, 768.0)"><path d="M 0.0 768.0 L 1024.0 768.0 L 1024.0 0.0 L 0.0 0.0 Z M 0.0 768.0 " fill="#FEFFFF"></path><image xlink:href="D73FD3F8DC3DAE3E66E6AEE221122DDE.png" width="285.00" height="55.00" transform="matrix(1.00, 0.00, -0.00, -1.00, 359.4, 737.1)" opacity="0.50"></image><path d="M 362.4 736.1 L 641.3 736.1 L 641.3 687.2 L 362.4 687.2 Z M 362.4 736.1 " fill="#F5D327"></path><g><clipPath id="clip-148"><path d="M 360.4 687.2 L 643.3 687.2 L 643.3 736.1 L 360.4 736.1 Z M 360.4 687.2 "></path></clipPath><g clip-path="url(#clip-148)"><text xml:space="preserve" font-family="Helvetica-Light" font-size="24.0" fill="#FEFFFE" transform="matrix(1.00, 0.00, -0.00, -1.00, 398.0, 703.0)">r</text><text xml:space="preserve" font-family="Helvetica-Light" font-size="24.0" fill="#FEFFFE" transform="matrix(1.00, 0.00, -0.00, -1.00, 405.6, 703.0)">e</text><text xml:space="preserve" font-family="Helvetica-Light" font-size="24.0" fill="#FEFFFE" transform="matrix(1.00, 0.00, -0.00, -1.00, 418.9, 703.0)">a</text><text xml:space="preserve" font-family="Helvetica-Light" font-size="24.0" fill="#FEFFFE" transform="matrix(1.00, 0.00, -0.00, -1.00, 432.2, 703.0)">d</text><text xml:space="preserve" font-family="Helvetica-Light" font-size="24.0" fill="#FEFFFE" transform="matrix(1.00, 0.00, -0.00, -1.00, 446.9, 703.0)">y</text><text xml:space="preserve" font-family="Helvetica-Light" font-size="24.0" fill="#FEFFFE" transform="matrix(1.00, 0.00, -0.00, -1.00, 458.9, 703.0)"> </text><text xml:space="preserve" font-family="Helvetica-Light" font-size="24.0" fill="#FEFFFE" transform="matrix(1.00, 0.00, -0.00, -1.00, 465.6, 703.0)">s</text><text xml:space="preserve" font-family="Helvetica-Light" font-size="24.0" fill="#FEFFFE" transform="matrix(1.00, 0.00, -0.00, -1.00, 477.6, 703.0)">t</text><text xml:space="preserve" font-family="Helvetica-Light" font-size="24.0" fill="#FEFFFE" transform="matrix(1.00, 0.00, -0.00, -1.00, 484.3, 703.0)">a</text><text xml:space="preserve" font-family="Helvetica-Light" font-size="24.0" fill="#FEFFFE" transform="matrix(1.00, 0.00, -0.00, -1.00, 497.6, 703.0)">t</text><text xml:space="preserve" font-family="Helvetica-Light" font-size="24.0" fill="#FEFFFE" transform="matrix(1.00, 0.00, -0.00, -1.00, 504.3, 703.0)">e</text><text xml:space="preserve" font-family="Helvetica-Light" font-size="24.0" fill="#FEFFFE" transform="matrix(1.00, 0.00, -0.00, -1.00, 517.6, 703.0)"> </text><text xml:space="preserve" font-family="Helvetica-Light" font-size="24.0" fill="#FEFFFE" transform="matrix(1.00, 0.00, -0.00, -1.00, 524.3, 703.0)">c</text><text xml:space="preserve" font-family="Helvetica-Light" font-size="24.0" fill="#FEFFFE" transform="matrix(1.00, 0.00, -0.00, -1.00, 537.6, 703.0)">h</text><text xml:space="preserve" font-family="Helvetica-Light" font-size="24.0" fill="#FEFFFE" transform="matrix(1.00, 0.00, -0.00, -1.00, 551.0, 703.0)">a</text><text xml:space="preserve" font-family="Helvetica-Light" font-size="24.0" fill="#FEFFFE" transform="matrix(1.00, 0.00, -0.00, -1.00, 564.3, 703.0)">n</text><text xml:space="preserve" font-family="Helvetica-Light" font-size="24.0" fill="#FEFFFE" transform="matrix(1.00, 0.00, -0.00, -1.00, 577.7, 703.0)">g</text><text xml:space="preserve" font-family="Helvetica-Light" font-size="24.0" fill="#FEFFFE" transform="matrix(1.00, 0.00, -0.00, -1.00, 592.3, 703.0)">e</text></g></g><path d="M 0.0 0.0 L 21.6 0.0 L 22.6 0.0 " fill="none" stroke="#000000" stroke-width="2.00" transform="matrix(0.00, -1.00, -1.00, 0.00, 508.6, 671.6)"></path><path d="M 503.8 649.9 L 508.6 640.3 L 513.4 649.9 Z M 503.8 649.9 " fill="#000000"></path><image xlink:href="363CF48B025A2B628588DCB93DB3C5C6.png" width="408.00" height="55.00" transform="matrix(1.00, 0.00, -0.00, -1.00, 304.7, 637.7)" opacity="0.50"></image><path d="M 307.7 636.7 L 709.5 636.7 L 709.5 587.8 L 307.7 587.8 Z M 307.7 636.7 " fill="#F5D327"></path><g><clipPath id="clip-149"><path d="M 305.7 587.8 L 711.5 587.8 L 711.5 636.7 L 305.7 636.7 Z M 305.7 587.8 "></path></clipPath><g clip-path="url(#clip-149)"><text xml:space="preserve" font-family="Helvetica-Light" font-size="24.0" fill="#FEFFFE" transform="matrix(1.00, 0.00, -0.00, -1.00, 365.0, 603.0)">D</text><text xml:space="preserve" font-family="Helvetica-Light" font-size="24.0" fill="#FEFFFE" transform="matrix(1.00, 0.00, -0.00, -1.00, 382.3, 603.0)">o</text><text xml:space="preserve" font-family="Helvetica-Light" font-size="24.0" fill="#FEFFFE" transform="matrix(1.00, 0.00, -0.00, -1.00, 395.7, 603.0)">m</text><text xml:space="preserve" font-family="Helvetica-Light" font-size="24.0" fill="#FEFFFE" transform="matrix(1.00, 0.00, -0.00, -1.00, 415.7, 603.0)"> </text><text xml:space="preserve" font-family="Helvetica-Light" font-size="24.0" fill="#FEFFFE" transform="matrix(1.00, 0.00, -0.00, -1.00, 422.3, 603.0)">C</text><text xml:space="preserve" font-family="Helvetica-Light" font-size="24.0" fill="#FEFFFE" transform="matrix(1.00, 0.00, -0.00, -1.00, 439.7, 603.0)">o</text><text xml:space="preserve" font-family="Helvetica-Light" font-size="24.0" fill="#FEFFFE" transform="matrix(1.00, 0.00, -0.00, -1.00, 453.0, 603.0)">n</text><text xml:space="preserve" font-family="Helvetica-Light" font-size="24.0" fill="#FEFFFE" transform="matrix(1.00, 0.00, -0.00, -1.00, 466.4, 603.0)">t</text><text xml:space="preserve" font-family="Helvetica-Light" font-size="24.0" fill="#FEFFFE" transform="matrix(1.00, 0.00, -0.00, -1.00, 473.0, 603.0)">e</text><text xml:space="preserve" font-family="Helvetica-Light" font-size="24.0" fill="#FEFFFE" transform="matrix(1.00, 0.00, -0.00, -1.00, 486.4, 603.0)">n</text><text xml:space="preserve" font-family="Helvetica-Light" font-size="24.0" fill="#FEFFFE" transform="matrix(1.00, 0.00, -0.00, -1.00, 499.7, 603.0)">t</text><text xml:space="preserve" font-family="Helvetica-Light" font-size="24.0" fill="#FEFFFE" transform="matrix(1.00, 0.00, -0.00, -1.00, 506.4, 603.0)"> </text><text xml:space="preserve" font-family="Helvetica-Light" font-size="24.0" fill="#FEFFFE" transform="matrix(1.00, 0.00, -0.00, -1.00, 513.1, 603.0)">L</text><text xml:space="preserve" font-family="Helvetica-Light" font-size="24.0" fill="#FEFFFE" transform="matrix(1.00, 0.00, -0.00, -1.00, 526.4, 603.0)">o</text><text xml:space="preserve" font-family="Helvetica-Light" font-size="24.0" fill="#FEFFFE" transform="matrix(1.00, 0.00, -0.00, -1.00, 539.7, 603.0)">a</text><text xml:space="preserve" font-family="Helvetica-Light" font-size="24.0" fill="#FEFFFE" transform="matrix(1.00, 0.00, -0.00, -1.00, 553.1, 603.0)">d</text><text xml:space="preserve" font-family="Helvetica-Light" font-size="24.0" fill="#FEFFFE" transform="matrix(1.00, 0.00, -0.00, -1.00, 567.8, 603.0)">e</text><text xml:space="preserve" font-family="Helvetica-Light" font-size="24.0" fill="#FEFFFE" transform="matrix(1.00, 0.00, -0.00, -1.00, 581.1, 603.0)">d</text><text xml:space="preserve" font-family="Helvetica-Light" font-size="24.0" fill="#FEFFFE" transform="matrix(1.00, 0.00, -0.00, -1.00, 595.8, 603.0)"> </text><text xml:space="preserve" font-family="Helvetica-Light" font-size="24.0" fill="#FEFFFE" transform="matrix(1.00, 0.00, -0.00, -1.00, 602.4, 603.0)">S</text><text xml:space="preserve" font-family="Helvetica-Light" font-size="24.0" fill="#FEFFFE" transform="matrix(1.00, 0.00, -0.00, -1.00, 617.1, 603.0)">t</text><text xml:space="preserve" font-family="Helvetica-Light" font-size="24.0" fill="#FEFFFE" transform="matrix(1.00, 0.00, -0.00, -1.00, 623.8, 603.0)">a</text><text xml:space="preserve" font-family="Helvetica-Light" font-size="24.0" fill="#FEFFFE" transform="matrix(1.00, 0.00, -0.00, -1.00, 637.1, 603.0)">r</text><text xml:space="preserve" font-family="Helvetica-Light" font-size="24.0" fill="#FEFFFE" transform="matrix(1.00, 0.00, -0.00, -1.00, 645.5, 603.0)">t</text></g></g><image xlink:href="../../BD259B8D-6878-472A-B037-3FE3A9A39816/assets/363CF48B025A2B628588DCB93DB3C5C6.png" width="408.00" height="55.00" transform="matrix(1.00, 0.00, -0.00, -1.00, 308.1, 550.4)" opacity="0.50"></image><path d="M 311.1 549.4 L 712.9 549.4 L 712.9 500.5 L 311.1 500.5 Z M 311.1 549.4 " fill="#F5D327"></path><g><clipPath id="clip-150"><path d="M 309.1 500.5 L 714.9 500.5 L 714.9 549.4 L 309.1 549.4 Z M 309.1 500.5 "></path></clipPath><g clip-path="url(#clip-150)"><text xml:space="preserve" font-family="Helvetica-Light" font-size="24.0" fill="#FEFFFE" transform="matrix(1.00, 0.00, -0.00, -1.00, 394.0, 516.0)">D</text><text xml:space="preserve" font-family="Helvetica-Light" font-size="24.0" fill="#FEFFFE" transform="matrix(1.00, 0.00, -0.00, -1.00, 411.3, 516.0)">O</text><text xml:space="preserve" font-family="Helvetica-Light" font-size="24.0" fill="#FEFFFE" transform="matrix(1.00, 0.00, -0.00, -1.00, 430.0, 516.0)">M</text><text xml:space="preserve" font-family="Helvetica-Light" font-size="24.0" fill="#FEFFFE" transform="matrix(1.00, 0.00, -0.00, -1.00, 450.0, 516.0)"> </text><text xml:space="preserve" font-family="Helvetica-Light" font-size="24.0" fill="#FEFFFE" transform="matrix(1.00, 0.00, -0.00, -1.00, 456.7, 516.0)">C</text><text xml:space="preserve" font-family="Helvetica-Light" font-size="24.0" fill="#FEFFFE" transform="matrix(1.00, 0.00, -0.00, -1.00, 474.0, 516.0)">o</text><text xml:space="preserve" font-family="Helvetica-Light" font-size="24.0" fill="#FEFFFE" transform="matrix(1.00, 0.00, -0.00, -1.00, 487.3, 516.0)">n</text><text xml:space="preserve" font-family="Helvetica-Light" font-size="24.0" fill="#FEFFFE" transform="matrix(1.00, 0.00, -0.00, -1.00, 500.7, 516.0)">t</text><text xml:space="preserve" font-family="Helvetica-Light" font-size="24.0" fill="#FEFFFE" transform="matrix(1.00, 0.00, -0.00, -1.00, 507.4, 516.0)">e</text><text xml:space="preserve" font-family="Helvetica-Light" font-size="24.0" fill="#FEFFFE" transform="matrix(1.00, 0.00, -0.00, -1.00, 520.7, 516.0)">n</text><text xml:space="preserve" font-family="Helvetica-Light" font-size="24.0" fill="#FEFFFE" transform="matrix(1.00, 0.00, -0.00, -1.00, 534.0, 516.0)">t</text><text xml:space="preserve" font-family="Helvetica-Light" font-size="24.0" fill="#FEFFFE" transform="matrix(1.00, 0.00, -0.00, -1.00, 540.7, 516.0)"> </text><text xml:space="preserve" font-family="Helvetica-Light" font-size="24.0" fill="#FEFFFE" transform="matrix(1.00, 0.00, -0.00, -1.00, 547.4, 516.0)">L</text><text xml:space="preserve" font-family="Helvetica-Light" font-size="24.0" fill="#FEFFFE" transform="matrix(1.00, 0.00, -0.00, -1.00, 560.7, 516.0)">o</text><text xml:space="preserve" font-family="Helvetica-Light" font-size="24.0" fill="#FEFFFE" transform="matrix(1.00, 0.00, -0.00, -1.00, 574.1, 516.0)">a</text><text xml:space="preserve" font-family="Helvetica-Light" font-size="24.0" fill="#FEFFFE" transform="matrix(1.00, 0.00, -0.00, -1.00, 587.4, 516.0)">d</text><text xml:space="preserve" font-family="Helvetica-Light" font-size="24.0" fill="#FEFFFE" transform="matrix(1.00, 0.00, -0.00, -1.00, 602.1, 516.0)">e</text><text xml:space="preserve" font-family="Helvetica-Light" font-size="24.0" fill="#FEFFFE" transform="matrix(1.00, 0.00, -0.00, -1.00, 615.4, 516.0)">d</text></g></g><image xlink:href="../../BD259B8D-6878-472A-B037-3FE3A9A39816/assets/363CF48B025A2B628588DCB93DB3C5C6.png" width="408.00" height="55.00" transform="matrix(1.00, 0.00, -0.00, -1.00, 308.1, 457.3)" opacity="0.50"></image><path d="M 311.1 456.3 L 712.9 456.3 L 712.9 407.4 L 311.1 407.4 Z M 311.1 456.3 " fill="#F5D327"></path><g><clipPath id="clip-151"><path d="M 309.1 407.4 L 714.9 407.4 L 714.9 456.3 L 309.1 456.3 Z M 309.1 407.4 "></path></clipPath><g clip-path="url(#clip-151)"><text xml:space="preserve" font-family="Helvetica-Light" font-size="24.0" fill="#FEFFFE" transform="matrix(1.00, 0.00, -0.00, -1.00, 372.0, 423.0)">D</text><text xml:space="preserve" font-family="Helvetica-Light" font-size="24.0" fill="#FEFFFE" transform="matrix(1.00, 0.00, -0.00, -1.00, 389.3, 423.0)">o</text><text xml:space="preserve" font-family="Helvetica-Light" font-size="24.0" fill="#FEFFFE" transform="matrix(1.00, 0.00, -0.00, -1.00, 402.7, 423.0)">m</text><text xml:space="preserve" font-family="Helvetica-Light" font-size="24.0" fill="#FEFFFE" transform="matrix(1.00, 0.00, -0.00, -1.00, 422.7, 423.0)"> </text><text xml:space="preserve" font-family="Helvetica-Light" font-size="24.0" fill="#FEFFFE" transform="matrix(1.00, 0.00, -0.00, -1.00, 429.3, 423.0)">C</text><text xml:space="preserve" font-family="Helvetica-Light" font-size="24.0" fill="#FEFFFE" transform="matrix(1.00, 0.00, -0.00, -1.00, 446.7, 423.0)">o</text><text xml:space="preserve" font-family="Helvetica-Light" font-size="24.0" fill="#FEFFFE" transform="matrix(1.00, 0.00, -0.00, -1.00, 460.0, 423.0)">n</text><text xml:space="preserve" font-family="Helvetica-Light" font-size="24.0" fill="#FEFFFE" transform="matrix(1.00, 0.00, -0.00, -1.00, 473.4, 423.0)">t</text><text xml:space="preserve" font-family="Helvetica-Light" font-size="24.0" fill="#FEFFFE" transform="matrix(1.00, 0.00, -0.00, -1.00, 480.0, 423.0)">e</text><text xml:space="preserve" font-family="Helvetica-Light" font-size="24.0" fill="#FEFFFE" transform="matrix(1.00, 0.00, -0.00, -1.00, 493.4, 423.0)">n</text><text xml:space="preserve" font-family="Helvetica-Light" font-size="24.0" fill="#FEFFFE" transform="matrix(1.00, 0.00, -0.00, -1.00, 506.7, 423.0)">t</text><text xml:space="preserve" font-family="Helvetica-Light" font-size="24.0" fill="#FEFFFE" transform="matrix(1.00, 0.00, -0.00, -1.00, 513.4, 423.0)"> </text><text xml:space="preserve" font-family="Helvetica-Light" font-size="24.0" fill="#FEFFFE" transform="matrix(1.00, 0.00, -0.00, -1.00, 520.1, 423.0)">L</text><text xml:space="preserve" font-family="Helvetica-Light" font-size="24.0" fill="#FEFFFE" transform="matrix(1.00, 0.00, -0.00, -1.00, 533.4, 423.0)">o</text><text xml:space="preserve" font-family="Helvetica-Light" font-size="24.0" fill="#FEFFFE" transform="matrix(1.00, 0.00, -0.00, -1.00, 546.7, 423.0)">a</text><text xml:space="preserve" font-family="Helvetica-Light" font-size="24.0" fill="#FEFFFE" transform="matrix(1.00, 0.00, -0.00, -1.00, 560.1, 423.0)">d</text><text xml:space="preserve" font-family="Helvetica-Light" font-size="24.0" fill="#FEFFFE" transform="matrix(1.00, 0.00, -0.00, -1.00, 574.8, 423.0)">e</text><text xml:space="preserve" font-family="Helvetica-Light" font-size="24.0" fill="#FEFFFE" transform="matrix(1.00, 0.00, -0.00, -1.00, 588.1, 423.0)">d</text><text xml:space="preserve" font-family="Helvetica-Light" font-size="24.0" fill="#FEFFFE" transform="matrix(1.00, 0.00, -0.00, -1.00, 602.8, 423.0)"> </text><text xml:space="preserve" font-family="Helvetica-Light" font-size="24.0" fill="#FEFFFE" transform="matrix(1.00, 0.00, -0.00, -1.00, 609.4, 423.0)">E</text><text xml:space="preserve" font-family="Helvetica-Light" font-size="24.0" fill="#FEFFFE" transform="matrix(1.00, 0.00, -0.00, -1.00, 624.1, 423.0)">n</text><text xml:space="preserve" font-family="Helvetica-Light" font-size="24.0" fill="#FEFFFE" transform="matrix(1.00, 0.00, -0.00, -1.00, 637.4, 423.0)">d</text></g></g><path d="M 0.0 0.0 L 21.6 0.0 L 22.6 0.0 " fill="none" stroke="#000000" stroke-width="2.00" transform="matrix(0.00, -1.00, -1.00, 0.00, 508.6, 584.2)"></path><path d="M 503.8 562.6 L 508.6 553.0 L 513.4 562.6 Z M 503.8 562.6 " fill="#000000"></path><path d="M 0.0 0.0 L 21.6 0.0 L 22.6 0.0 " fill="none" stroke="#000000" stroke-width="2.00" transform="matrix(0.00, -1.00, -1.00, 0.00, 508.6, 491.5)"></path><path d="M 503.8 469.9 L 508.6 460.3 L 513.4 469.9 Z M 503.8 469.9 " fill="#000000"></path><path d="M 0.0 0.0 L 21.6 0.0 L 22.6 0.0 " fill="none" stroke="#000000" stroke-width="2.00" transform="matrix(0.00, -1.00, -1.00, 0.00, 506.9, 398.9)"></path><path d="M 502.1 377.2 L 506.9 367.6 L 511.7 377.2 Z M 502.1 377.2 " fill="#000000"></path><image xlink:href="../../A67A9E90-831E-42B8-86BE-21D0E64DC4C9/assets/B6F9D3F07987D376C0860DEEA2A4D7D0.png" width="266.00" height="53.00" transform="matrix(1.00, 0.00, -0.00, -1.00, 378.9, 362.2)" opacity="0.79"></image><g><clipPath id="clip-152"><path d="M 379.3 361.4 L 641.2 361.4 L 641.2 312.6 L 379.3 312.6 Z M 379.3 361.4 "></path></clipPath><g clip-path="url(#clip-152)"><image xlink:href="../../CCF6324E-923F-4014-9F5D-9E3250DFF47F/assets/38DD32352FB5B07290E0165F89193E7E.jpeg" width="337.00" height="337.00" transform="matrix(0.89, 0.00, -0.00, -0.89, 379.3, 361.4)"></image><path d="M 379.3 361.4 L 641.2 361.4 L 641.2 312.6 L 379.3 312.6 Z M 379.3 361.4 " fill="#8336BB" fill-opacity="0.50"></path></g></g><g><clipPath id="clip-153"><path d="M 377.3 312.6 L 643.2 312.6 L 643.2 361.5 L 377.3 361.5 Z M 377.3 312.6 "></path></clipPath><g clip-path="url(#clip-153)"><text xml:space="preserve" font-family="Helvetica-Light" font-size="24.0" fill="#FEFFFE" transform="matrix(1.00, 0.00, -0.00, -1.00, 474.0, 328.0)">L</text><text xml:space="preserve" font-family="Helvetica-Light" font-size="24.0" fill="#FEFFFE" transform="matrix(1.00, 0.00, -0.00, -1.00, 487.3, 328.0)">a</text><text xml:space="preserve" font-family="Helvetica-Light" font-size="24.0" fill="#FEFFFE" transform="matrix(1.00, 0.00, -0.00, -1.00, 500.7, 328.0)">y</text><text xml:space="preserve" font-family="Helvetica-Light" font-size="24.0" fill="#FEFFFE" transform="matrix(1.00, 0.00, -0.00, -1.00, 512.7, 328.0)">o</text><text xml:space="preserve" font-family="Helvetica-Light" font-size="24.0" fill="#FEFFFE" transform="matrix(1.00, 0.00, -0.00, -1.00, 526.0, 328.0)">u</text><text xml:space="preserve" font-family="Helvetica-Light" font-size="24.0" fill="#FEFFFE" transform="matrix(1.00, 0.00, -0.00, -1.00, 539.4, 328.0)">t</text></g></g><image xlink:href="../../A67A9E90-831E-42B8-86BE-21D0E64DC4C9/assets/B6F9D3F07987D376C0860DEEA2A4D7D0.png" width="266.00" height="53.00" transform="matrix(1.00, 0.00, -0.00, -1.00, 378.9, 262.4)" opacity="0.79"></image><g><clipPath id="clip-154"><path d="M 379.3 261.7 L 641.2 261.7 L 641.2 212.8 L 379.3 212.8 Z M 379.3 261.7 "></path></clipPath><g clip-path="url(#clip-154)"><image xlink:href="../../CCF6324E-923F-4014-9F5D-9E3250DFF47F/assets/38DD32352FB5B07290E0165F89193E7E.jpeg" width="337.00" height="337.00" transform="matrix(0.89, 0.00, -0.00, -0.89, 379.3, 261.7)"></image><path d="M 379.3 261.7 L 641.2 261.7 L 641.2 212.8 L 379.3 212.8 Z M 379.3 261.7 " fill="#8336BB" fill-opacity="0.50"></path></g></g><g><clipPath id="clip-155"><path d="M 377.3 212.8 L 643.2 212.8 L 643.2 261.7 L 377.3 261.7 Z M 377.3 212.8 "></path></clipPath><g clip-path="url(#clip-155)"><text xml:space="preserve" font-family="Helvetica-Light" font-size="24.0" fill="#FEFFFE" transform="matrix(1.00, 0.00, -0.00, -1.00, 411.0, 228.0)">U</text><text xml:space="preserve" font-family="Helvetica-Light" font-size="24.0" fill="#FEFFFE" transform="matrix(1.00, 0.00, -0.00, -1.00, 428.3, 228.0)">p</text><text xml:space="preserve" font-family="Helvetica-Light" font-size="24.0" fill="#FEFFFE" transform="matrix(1.00, 0.00, -0.00, -1.00, 443.0, 228.0)">d</text><text xml:space="preserve" font-family="Helvetica-Light" font-size="24.0" fill="#FEFFFE" transform="matrix(1.00, 0.00, -0.00, -1.00, 457.7, 228.0)">a</text><text xml:space="preserve" font-family="Helvetica-Light" font-size="24.0" fill="#FEFFFE" transform="matrix(1.00, 0.00, -0.00, -1.00, 471.0, 228.0)">t</text><text xml:space="preserve" font-family="Helvetica-Light" font-size="24.0" fill="#FEFFFE" transform="matrix(1.00, 0.00, -0.00, -1.00, 477.7, 228.0)">e</text><text xml:space="preserve" font-family="Helvetica-Light" font-size="24.0" fill="#FEFFFE" transform="matrix(1.00, 0.00, -0.00, -1.00, 491.0, 228.0)"> </text><text xml:space="preserve" font-family="Helvetica-Light" font-size="24.0" fill="#FEFFFE" transform="matrix(1.00, 0.00, -0.00, -1.00, 497.7, 228.0)">L</text><text xml:space="preserve" font-family="Helvetica-Light" font-size="24.0" fill="#FEFFFE" transform="matrix(1.00, 0.00, -0.00, -1.00, 511.0, 228.0)">a</text><text xml:space="preserve" font-family="Helvetica-Light" font-size="24.0" fill="#FEFFFE" transform="matrix(1.00, 0.00, -0.00, -1.00, 524.4, 228.0)">y</text><text xml:space="preserve" font-family="Helvetica-Light" font-size="24.0" fill="#FEFFFE" transform="matrix(1.00, 0.00, -0.00, -1.00, 536.4, 228.0)">e</text><text xml:space="preserve" font-family="Helvetica-Light" font-size="24.0" fill="#FEFFFE" transform="matrix(1.00, 0.00, -0.00, -1.00, 549.7, 228.0)">r</text><text xml:space="preserve" font-family="Helvetica-Light" font-size="24.0" fill="#FEFFFE" transform="matrix(1.00, 0.00, -0.00, -1.00, 557.7, 228.0)"> </text><text xml:space="preserve" font-family="Helvetica-Light" font-size="24.0" fill="#FEFFFE" transform="matrix(1.00, 0.00, -0.00, -1.00, 564.4, 228.0)">T</text><text xml:space="preserve" font-family="Helvetica-Light" font-size="24.0" fill="#FEFFFE" transform="matrix(1.00, 0.00, -0.00, -1.00, 575.5, 228.0)">r</text><text xml:space="preserve" font-family="Helvetica-Light" font-size="24.0" fill="#FEFFFE" transform="matrix(1.00, 0.00, -0.00, -1.00, 583.1, 228.0)">e</text><text xml:space="preserve" font-family="Helvetica-Light" font-size="24.0" fill="#FEFFFE" transform="matrix(1.00, 0.00, -0.00, -1.00, 596.4, 228.0)">e</text></g></g><path d="M 0.0 0.0 L 21.6 0.0 L 22.6 0.0 " fill="none" stroke="#000000" stroke-width="2.00" transform="matrix(0.00, -1.00, -1.00, 0.00, 506.9, 296.9)"></path><path d="M 502.1 275.3 L 506.9 265.7 L 511.7 275.3 Z M 502.1 275.3 " fill="#000000"></path><image xlink:href="../../54D6C07E-3872-4581-93E1-920B1AB9C99C/assets/FE626775840F1C5C3C205A7704E0D53E.png" width="270.00" height="57.00" transform="matrix(1.00, 0.00, -0.00, -1.00, 372.9, 177.3)" opacity="0.50"></image><g><clipPath id="clip-156"><path d="M 375.9 173.3 L 637.8 173.3 L 637.8 124.4 L 375.9 124.4 Z M 375.9 173.3 "></path></clipPath><g clip-path="url(#clip-156)"><image xlink:href="../../CCF6324E-923F-4014-9F5D-9E3250DFF47F/assets/38DD32352FB5B07290E0165F89193E7E.jpeg" width="337.00" height="337.00" transform="matrix(0.89, 0.00, -0.00, -0.89, 375.9, 173.3)"></image><path d="M 375.9 173.3 L 637.8 173.3 L 637.8 124.4 L 375.9 124.4 Z M 375.9 173.3 " fill="#00D026" fill-opacity="0.50"></path></g></g><g><clipPath id="clip-157"><path d="M 373.9 124.4 L 639.8 124.4 L 639.8 173.3 L 373.9 173.3 Z M 373.9 124.4 "></path></clipPath><g clip-path="url(#clip-157)"><text xml:space="preserve" font-family="Helvetica-Light" font-size="24.0" fill="#FEFFFE" transform="matrix(1.00, 0.00, -0.00, -1.00, 480.0, 140.0)">P</text><text xml:space="preserve" font-family="Helvetica-Light" font-size="24.0" fill="#FEFFFE" transform="matrix(1.00, 0.00, -0.00, -1.00, 494.7, 140.0)">a</text><text xml:space="preserve" font-family="Helvetica-Light" font-size="24.0" fill="#FEFFFE" transform="matrix(1.00, 0.00, -0.00, -1.00, 508.0, 140.0)">i</text><text xml:space="preserve" font-family="Helvetica-Light" font-size="24.0" fill="#FEFFFE" transform="matrix(1.00, 0.00, -0.00, -1.00, 513.3, 140.0)">n</text><text xml:space="preserve" font-family="Helvetica-Light" font-size="24.0" fill="#FEFFFE" transform="matrix(1.00, 0.00, -0.00, -1.00, 526.7, 140.0)">t</text></g></g><path d="M 0.0 0.0 L 21.6 0.0 L 22.6 0.0 " fill="none" stroke="#000000" stroke-width="2.00" transform="matrix(0.00, -1.00, -1.00, 0.00, 506.9, 208.8)"></path><path d="M 502.1 187.2 L 506.9 177.6 L 511.7 187.2 Z M 502.1 187.2 " fill="#000000"></path><image xlink:href="../../54D6C07E-3872-4581-93E1-920B1AB9C99C/assets/FE626775840F1C5C3C205A7704E0D53E.png" width="270.00" height="57.00" transform="matrix(1.00, 0.00, -0.00, -1.00, 374.6, 94.6)" opacity="0.50"></image><g><clipPath id="clip-158"><path d="M 377.6 90.6 L 639.5 90.6 L 639.5 41.8 L 377.6 41.8 Z M 377.6 90.6 "></path></clipPath><g clip-path="url(#clip-158)"><image xlink:href="../../CCF6324E-923F-4014-9F5D-9E3250DFF47F/assets/38DD32352FB5B07290E0165F89193E7E.jpeg" width="337.00" height="337.00" transform="matrix(0.89, 0.00, -0.00, -0.89, 377.6, 90.6)"></image><path d="M 377.6 90.6 L 639.5 90.6 L 639.5 41.8 L 377.6 41.8 Z M 377.6 90.6 " fill="#00D026" fill-opacity="0.50"></path></g></g><g><clipPath id="clip-159"><path d="M 375.6 41.8 L 641.5 41.8 L 641.5 90.6 L 375.6 90.6 Z M 375.6 41.8 "></path></clipPath><g clip-path="url(#clip-159)"><text xml:space="preserve" font-family="Helvetica-Light" font-size="24.0" fill="#FEFFFE" transform="matrix(1.00, 0.00, -0.00, -1.00, 411.0, 57.0)">C</text><text xml:space="preserve" font-family="Helvetica-Light" font-size="24.0" fill="#FEFFFE" transform="matrix(1.00, 0.00, -0.00, -1.00, 428.3, 57.0)">o</text><text xml:space="preserve" font-family="Helvetica-Light" font-size="24.0" fill="#FEFFFE" transform="matrix(1.00, 0.00, -0.00, -1.00, 441.7, 57.0)">m</text><text xml:space="preserve" font-family="Helvetica-Light" font-size="24.0" fill="#FEFFFE" transform="matrix(1.00, 0.00, -0.00, -1.00, 461.7, 57.0)">p</text><text xml:space="preserve" font-family="Helvetica-Light" font-size="24.0" fill="#FEFFFE" transform="matrix(1.00, 0.00, -0.00, -1.00, 476.3, 57.0)">o</text><text xml:space="preserve" font-family="Helvetica-Light" font-size="24.0" fill="#FEFFFE" transform="matrix(1.00, 0.00, -0.00, -1.00, 489.7, 57.0)">s</text><text xml:space="preserve" font-family="Helvetica-Light" font-size="24.0" fill="#FEFFFE" transform="matrix(1.00, 0.00, -0.00, -1.00, 501.7, 57.0)">i</text><text xml:space="preserve" font-family="Helvetica-Light" font-size="24.0" fill="#FEFFFE" transform="matrix(1.00, 0.00, -0.00, -1.00, 507.0, 57.0)">t</text><text xml:space="preserve" font-family="Helvetica-Light" font-size="24.0" fill="#FEFFFE" transform="matrix(1.00, 0.00, -0.00, -1.00, 513.7, 57.0)">e</text><text xml:space="preserve" font-family="Helvetica-Light" font-size="24.0" fill="#FEFFFE" transform="matrix(1.00, 0.00, -0.00, -1.00, 527.0, 57.0)"> </text><text xml:space="preserve" font-family="Helvetica-Light" font-size="24.0" fill="#FEFFFE" transform="matrix(1.00, 0.00, -0.00, -1.00, 533.7, 57.0)">L</text><text xml:space="preserve" font-family="Helvetica-Light" font-size="24.0" fill="#FEFFFE" transform="matrix(1.00, 0.00, -0.00, -1.00, 547.0, 57.0)">a</text><text xml:space="preserve" font-family="Helvetica-Light" font-size="24.0" fill="#FEFFFE" transform="matrix(1.00, 0.00, -0.00, -1.00, 560.4, 57.0)">y</text><text xml:space="preserve" font-family="Helvetica-Light" font-size="24.0" fill="#FEFFFE" transform="matrix(1.00, 0.00, -0.00, -1.00, 572.4, 57.0)">e</text><text xml:space="preserve" font-family="Helvetica-Light" font-size="24.0" fill="#FEFFFE" transform="matrix(1.00, 0.00, -0.00, -1.00, 585.7, 57.0)">r</text><text xml:space="preserve" font-family="Helvetica-Light" font-size="24.0" fill="#FEFFFE" transform="matrix(1.00, 0.00, -0.00, -1.00, 593.7, 57.0)">s</text></g></g><path d="M 0.0 0.0 L 21.6 0.0 L 22.6 0.0 " fill="none" stroke="#000000" stroke-width="2.00" transform="matrix(0.00, -1.00, -1.00, 0.00, 508.6, 126.2)"></path><path d="M 503.8 104.6 L 508.6 95.0 L 513.4 104.6 Z M 503.8 104.6 " fill="#000000"></path></g></svg>